<svg width="512" height="512" viewBox="0 0 512 512" xmlns="http://www.w3.org/2000/svg">
<defs>
<linearGradient id="charGrad" x1="0" y1="0" x2="0" y2="1">
<stop offset="0" stop-color="#454A46"/><stop offset="1" stop-color="#2B2F2C"/>
</linearGradient>
<linearGradient id="greenGrad" x1="0" y1="0" x2="1" y2="1">
<stop offset="0" stop-color="#4ADE80"/><stop offset="1" stop-color="#16A34A"/>
</linearGradient>
<filter id="soft" x="-50%" y="-50%" width="200%" height="200%">
<feDropShadow dx="0" dy="6" stdDeviation="8" flood-color="#000000" flood-opacity="0.10"/>
</filter>
</defs>
<rect width="512" height="512" fill="#F7F6F2"/>

<g filter="url(#soft)">
<rect x="106" y="140" width="300" height="232" rx="18" fill="#FFFFFF" stroke="#E6E4DC" stroke-width="2"/>
</g>
<rect x="132" y="166" width="80" height="10" rx="5" fill="#DAD8D0"/>
<circle cx="378" cy="171" r="6" fill="#16A34A"/>
<line x1="132" y1="196" x2="380" y2="196" stroke="#E6E4DC" stroke-width="2"/>
<rect x="140" y="290" width="34" height="50" rx="6" fill="#C7C4BA"/>
<rect x="188" y="260" width="34" height="80" rx="6" fill="#C7C4BA"/>
<rect x="236" y="230" width="34" height="110" rx="6" fill="url(#greenGrad)"/>
<rect x="284" y="300" width="34" height="40" rx="6" fill="#C7C4BA"/>
<rect x="332" y="276" width="34" height="64" rx="6" fill="#C7C4BA"/>
<circle cx="253" cy="222" r="10" fill="#16A34A"/>
<path d="M253 205 L253 195" stroke="#16A34A" stroke-width="3" stroke-linecap="round"/>
<path d="M246 200 L253 190 L260 200" fill="none" stroke="#16A34A" stroke-width="3" stroke-linecap="round" stroke-linejoin="round"/>
<rect x="225" y="215" width="56" height="132" rx="10" fill="none" stroke="#16A34A" stroke-width="2" stroke-dasharray="3 6"/>
</svg>